<?xml version="1.0"?>
<svg xmlns="http://www.w3.org/2000/svg" xmlns:xlink="http://www.w3.org/1999/xlink" version="1.1" id="Capa_1" x="0px" y="0px" viewBox="0 0 429.279 429.279" style="enable-background:new 0 0 429.279 429.279;" xml:space="preserve" width="512px" height="512px" class=""><g><g>
	<g>
		
		
		
		<path style="fill:#0C0606" d="M24,327.508c0,13.676,11.127,24.803,24.805,24.803h38.041v-97.777c0-6.628,5.372-12,12-12h231.588    c6.628,0,12,5.372,12,12v97.777h38.041c13.678,0,24.805-11.126,24.805-24.803v-97.072H24V327.508z" data-original="#73D0F4" class="active-path" data-old_color="#000000"/>
		<path style="fill:#000102" d="M380.475,149.67h-40.357V22.717c0-6.627-5.372-12-12-12H101.161c-6.628,0-12,5.373-12,12V149.67    H48.805C21.893,149.67,0,171.563,0,198.475v129.033c0,26.91,21.893,48.803,48.805,48.803h38.041v30.252c0,6.627,5.372,12,12,12    h231.588c6.628,0,12-5.373,12-12V376.31h38.041c26.911,0,48.805-21.893,48.805-48.803V198.475    C429.279,171.563,407.386,149.67,380.475,149.67z M405.279,327.508c0,13.676-11.127,24.803-24.805,24.803h-38.041v-97.777    c0-6.628-5.372-12-12-12H98.846c-6.628,0-12,5.372-12,12v97.777H48.805C35.127,352.31,24,341.184,24,327.508v-97.072h381.279    V327.508z M113.161,34.717h202.957V149.67H113.161V34.717z M24,198.475c0-13.677,11.127-24.805,24.805-24.805h331.67    c13.678,0,24.805,11.127,24.805,24.805v7.961H24V198.475z M318.434,394.563H110.846V266.533h207.588V394.563z" data-original="#3D6889" class="" data-old_color="#132534"/>
		<path style="fill:#000102" d="M375.642,178.052c-3.16,0-6.25,1.28-8.49,3.52c-2.23,2.23-3.51,5.32-3.51,8.48    c0,3.16,1.28,6.25,3.51,8.49c2.24,2.23,5.33,3.51,8.49,3.51c3.15,0,6.25-1.28,8.48-3.51c2.24-2.24,3.52-5.33,3.52-8.49    c0-3.16-1.279-6.25-3.52-8.48C381.892,179.332,378.793,178.052,375.642,178.052z" data-original="#3D6889" class="" data-old_color="#132534"/>
		<path style="fill:#000102" d="M141.998,316.908h140.514c6.627,0,12-5.373,12-12c0-6.628-5.373-12-12-12H141.998    c-6.627,0-12,5.372-12,12C129.998,311.536,135.371,316.908,141.998,316.908z" data-original="#3D6889" class="" data-old_color="#132534"/>
		<path style="fill:#000102" d="M141.998,368.189h65.641c6.628,0,12-5.373,12-12c0-6.627-5.372-12-12-12h-65.641    c-6.627,0-12,5.373-12,12C129.998,362.817,135.371,368.189,141.998,368.189z" data-original="#3D6889" class="" data-old_color="#132534"/>
	</g>
</g></g> </svg>
