<?xml version="1.0"?>
<svg xmlns="http://www.w3.org/2000/svg" xmlns:xlink="http://www.w3.org/1999/xlink" version="1.1" id="Layer_1" x="0px" y="0px" viewBox="0 0 280.028 280.028" style="enable-background:new 0 0 280.028 280.028;" xml:space="preserve" width="512px" height="512px" class=""><g><g>
	<path style="fill:#000101" d="M39.379,70.007v192.519c0,9.661,7.841,17.502,17.502,17.502h166.266   c9.661,0,17.502-7.841,17.502-17.502V70.007H39.379z" data-original="#CCD0D2" class="" data-old_color="#000202"/>
	<path style="fill:#000101" d="M100.635,0h78.758c9.661,0,17.502,7.841,17.502,17.502v17.502h-17.502v-8.751   c0-4.83-3.912-8.751-8.751-8.751h-61.256c-4.839,0-8.751,3.92-8.751,8.751v8.751H83.133V17.502C83.133,7.841,90.974,0,100.635,0z" data-original="#CCD0D2" class="" data-old_color="#000202"/>
	<path style="fill:#F9FDFD" d="M74.382,240.648c0,7.254,5.881,13.126,13.126,13.126c7.246,0,13.126-5.872,13.126-13.126V113.49   H74.382V240.648z M179.393,113.49v127.159c0,7.246,5.881,13.126,13.126,13.126c7.246,0,13.126-5.881,13.126-13.126V113.49H179.393z    M126.887,240.648c0,7.246,5.881,13.126,13.126,13.126c7.246,0,13.126-5.881,13.126-13.126V113.49h-26.253L126.887,240.648   L126.887,240.648z" data-original="#AEB1B3" class="active-path" data-old_color="#F7FCFC"/>
	<path style="fill:#F9FDFD" d="M39.379,78.758h201.27V96.26H39.379V78.758z" data-original="#AEB1B3" class="active-path" data-old_color="#F7FCFC"/>
	<path style="fill:#01090B" d="M39.379,35.003h201.27c9.661,0,17.502,7.841,17.502,17.502v26.253H21.877V52.505   C21.877,42.844,29.718,35.003,39.379,35.003z" data-original="#D1D5D7" class="" data-old_color="#071114"/>
</g></g> </svg>
